<mxfile host="Electron" modified="2025-03-13T12:19:56.041Z" agent="Mozilla/5.0 (Macintosh; Intel Mac OS X 10_15_7) AppleWebKit/537.36 (KHTML, like Gecko) draw.io/21.3.7 Chrome/112.0.5615.204 Electron/24.5.0 Safari/537.36" etag="ndPYLi8Bx5DktN1myMha" version="21.3.7" type="device">
  <diagram name="Page-1" id="AShlyVa988cK4dMMIS_b">
    <mxGraphModel dx="2862" dy="1299" grid="1" gridSize="10" guides="1" tooltips="1" connect="1" arrows="1" fold="1" page="1" pageScale="1" pageWidth="827" pageHeight="1169" math="0" shadow="0">
      <root>
        <mxCell id="0" />
        <mxCell id="1" parent="0" />
        <mxCell id="murbXNoFbytTO8YjGdqV-1" value="&lt;b style=&quot;font-size: 12px;&quot;&gt;&lt;font style=&quot;font-size: 12px;&quot;&gt;input_ids&lt;br&gt;&lt;br&gt;&lt;font style=&quot;font-size: 12px;&quot; color=&quot;#ffffff&quot;&gt;[batch_size, sequence_length]&lt;/font&gt;&lt;br&gt;&lt;/font&gt;&lt;/b&gt;" style="rounded=1;whiteSpace=wrap;html=1;fillColor=#60a917;strokeColor=#2D7600;fontSize=11;verticalAlign=top;fontColor=#ffffff;" vertex="1" parent="1">
          <mxGeometry x="210" y="80" width="400" height="60" as="geometry" />
        </mxCell>
        <mxCell id="murbXNoFbytTO8YjGdqV-2" value="" style="shape=singleArrow;direction=south;whiteSpace=wrap;html=1;" vertex="1" parent="1">
          <mxGeometry x="384" y="140" width="60" height="60" as="geometry" />
        </mxCell>
        <mxCell id="murbXNoFbytTO8YjGdqV-3" value="&lt;b style=&quot;font-size: 12px;&quot;&gt;&lt;font style=&quot;font-size: 12px;&quot;&gt;position_ids&lt;br&gt;&lt;br&gt;&lt;font style=&quot;font-size: 12px;&quot; color=&quot;#ffffff&quot;&gt;[0, ... , sequence_length]&lt;/font&gt;&lt;br&gt;&lt;/font&gt;&lt;/b&gt;" style="rounded=1;whiteSpace=wrap;html=1;fillColor=#1ba1e2;strokeColor=#006EAF;fontSize=11;verticalAlign=top;fontColor=#ffffff;" vertex="1" parent="1">
          <mxGeometry x="214" y="200" width="400" height="60" as="geometry" />
        </mxCell>
        <mxCell id="murbXNoFbytTO8YjGdqV-5" value="&lt;b&gt;inputs_embeds [词嵌入Word Token Embedding]&lt;br&gt;&lt;br&gt;结构: nn.Embedding[vocab_size, embed_dim]&lt;br&gt;&lt;/b&gt;" style="shape=process;whiteSpace=wrap;html=1;backgroundOutline=1;fillColor=#fa6800;fontColor=#FFFFFF;strokeColor=#C73500;verticalAlign=top;" vertex="1" parent="1">
          <mxGeometry x="216" y="320" width="394" height="60" as="geometry" />
        </mxCell>
        <mxCell id="murbXNoFbytTO8YjGdqV-6" value="" style="shape=singleArrow;direction=south;whiteSpace=wrap;html=1;" vertex="1" parent="1">
          <mxGeometry x="384" y="260" width="60" height="60" as="geometry" />
        </mxCell>
        <mxCell id="murbXNoFbytTO8YjGdqV-7" value="&lt;b style=&quot;font-size: 12px;&quot;&gt;&lt;font style=&quot;font-size: 12px;&quot;&gt;inputs_embeds&lt;br&gt;&lt;br&gt;&lt;font style=&quot;font-size: 12px;&quot; color=&quot;#ffffff&quot;&gt;[batch size, sequence length, hidden size]&lt;/font&gt;&lt;br&gt;&lt;/font&gt;&lt;/b&gt;" style="rounded=1;whiteSpace=wrap;html=1;fillColor=#1ba1e2;strokeColor=#006EAF;fontSize=11;verticalAlign=top;fontColor=#ffffff;" vertex="1" parent="1">
          <mxGeometry x="216" y="430" width="400" height="60" as="geometry" />
        </mxCell>
        <mxCell id="murbXNoFbytTO8YjGdqV-8" value="" style="shape=singleArrow;direction=south;whiteSpace=wrap;html=1;" vertex="1" parent="1">
          <mxGeometry x="384" y="380" width="60" height="50" as="geometry" />
        </mxCell>
        <mxCell id="murbXNoFbytTO8YjGdqV-9" value="&lt;b&gt;position_embeds [词嵌入Word Token Embedding]&lt;br&gt;&lt;br&gt;结构: nn.Embedding[max_position_embed, embed_dim]&lt;br&gt;&lt;/b&gt;" style="shape=process;whiteSpace=wrap;html=1;backgroundOutline=1;fillColor=#fa6800;fontColor=#FFFFFF;strokeColor=#C73500;verticalAlign=top;" vertex="1" parent="1">
          <mxGeometry x="110" y="540" width="638" height="60" as="geometry" />
        </mxCell>
        <mxCell id="murbXNoFbytTO8YjGdqV-10" value="" style="shape=singleArrow;direction=south;whiteSpace=wrap;html=1;" vertex="1" parent="1">
          <mxGeometry x="386" y="490" width="60" height="50" as="geometry" />
        </mxCell>
        <mxCell id="murbXNoFbytTO8YjGdqV-11" value="&lt;b style=&quot;font-size: 12px;&quot;&gt;&lt;font style=&quot;font-size: 12px;&quot;&gt;hidden_states&lt;br&gt;&lt;br&gt;&lt;font style=&quot;font-size: 12px;&quot; color=&quot;#ffffff&quot;&gt;[batch size, sequence length, hidden size]&lt;/font&gt;&lt;br&gt;&lt;/font&gt;&lt;/b&gt;" style="rounded=1;whiteSpace=wrap;html=1;fillColor=#1ba1e2;strokeColor=#006EAF;fontSize=11;verticalAlign=top;fontColor=#ffffff;" vertex="1" parent="1">
          <mxGeometry x="214" y="650" width="400" height="60" as="geometry" />
        </mxCell>
        <mxCell id="murbXNoFbytTO8YjGdqV-12" value="" style="shape=singleArrow;direction=south;whiteSpace=wrap;html=1;" vertex="1" parent="1">
          <mxGeometry x="384" y="600" width="60" height="50" as="geometry" />
        </mxCell>
        <mxCell id="murbXNoFbytTO8YjGdqV-13" value="&lt;b&gt;合并&lt;br&gt;position_embed + inputs_embed&lt;/b&gt;" style="text;html=1;strokeColor=none;fillColor=none;align=center;verticalAlign=middle;whiteSpace=wrap;rounded=0;" vertex="1" parent="1">
          <mxGeometry x="271" y="610" width="286" height="30" as="geometry" />
        </mxCell>
        <mxCell id="murbXNoFbytTO8YjGdqV-14" value="&lt;b&gt;nn.Dropout[hidden_states]&lt;/b&gt;" style="shape=process;whiteSpace=wrap;html=1;backgroundOutline=1;fillColor=#fa6800;fontColor=#FFFFFF;strokeColor=#C73500;verticalAlign=middle;" vertex="1" parent="1">
          <mxGeometry x="100" y="760" width="638" height="40" as="geometry" />
        </mxCell>
        <mxCell id="murbXNoFbytTO8YjGdqV-15" value="" style="shape=singleArrow;direction=south;whiteSpace=wrap;html=1;" vertex="1" parent="1">
          <mxGeometry x="384" y="710" width="60" height="50" as="geometry" />
        </mxCell>
        <mxCell id="murbXNoFbytTO8YjGdqV-16" value="&lt;b&gt;GPT2Block [一层]&lt;/b&gt;" style="shape=process;whiteSpace=wrap;html=1;backgroundOutline=1;fillColor=#fa6800;fontColor=#FFFFFF;strokeColor=#C73500;verticalAlign=middle;" vertex="1" parent="1">
          <mxGeometry x="97" y="850" width="638" height="40" as="geometry" />
        </mxCell>
        <mxCell id="murbXNoFbytTO8YjGdqV-17" value="" style="shape=singleArrow;direction=south;whiteSpace=wrap;html=1;" vertex="1" parent="1">
          <mxGeometry x="386" y="800" width="60" height="50" as="geometry" />
        </mxCell>
        <mxCell id="murbXNoFbytTO8YjGdqV-18" value="&lt;b style=&quot;font-size: 12px;&quot;&gt;&lt;font style=&quot;font-size: 12px;&quot;&gt;output&lt;br&gt;&lt;br&gt;&lt;font style=&quot;font-size: 12px;&quot; color=&quot;#ffffff&quot;&gt;[batch size, sequence length, hidden size]&lt;/font&gt;&lt;br&gt;&lt;/font&gt;&lt;/b&gt;" style="rounded=1;whiteSpace=wrap;html=1;fillColor=#1ba1e2;strokeColor=#006EAF;fontSize=11;verticalAlign=top;fontColor=#ffffff;" vertex="1" parent="1">
          <mxGeometry x="219" y="940" width="400" height="60" as="geometry" />
        </mxCell>
        <mxCell id="murbXNoFbytTO8YjGdqV-19" value="" style="shape=singleArrow;direction=south;whiteSpace=wrap;html=1;" vertex="1" parent="1">
          <mxGeometry x="389" y="890" width="60" height="50" as="geometry" />
        </mxCell>
        <mxCell id="murbXNoFbytTO8YjGdqV-20" value="&lt;b&gt;RMSNorm&lt;/b&gt;" style="shape=process;whiteSpace=wrap;html=1;backgroundOutline=1;fillColor=#fa6800;fontColor=#FFFFFF;strokeColor=#C73500;verticalAlign=middle;" vertex="1" parent="1">
          <mxGeometry x="100" y="1050" width="638" height="40" as="geometry" />
        </mxCell>
        <mxCell id="murbXNoFbytTO8YjGdqV-22" value="" style="shape=singleArrow;direction=south;whiteSpace=wrap;html=1;" vertex="1" parent="1">
          <mxGeometry x="389" y="1000" width="60" height="50" as="geometry" />
        </mxCell>
        <mxCell id="murbXNoFbytTO8YjGdqV-23" value="&lt;b style=&quot;font-size: 12px;&quot;&gt;&lt;font style=&quot;font-size: 12px;&quot;&gt;output&lt;br&gt;&lt;br&gt;&lt;font style=&quot;font-size: 12px;&quot; color=&quot;#ffffff&quot;&gt;[batch size, sequence length, hidden size]&lt;/font&gt;&lt;br&gt;&lt;/font&gt;&lt;/b&gt;" style="rounded=1;whiteSpace=wrap;html=1;fillColor=#1ba1e2;strokeColor=#006EAF;fontSize=11;verticalAlign=top;fontColor=#ffffff;" vertex="1" parent="1">
          <mxGeometry x="219" y="1130" width="400" height="60" as="geometry" />
        </mxCell>
        <mxCell id="murbXNoFbytTO8YjGdqV-24" value="" style="shape=singleArrow;direction=south;whiteSpace=wrap;html=1;" vertex="1" parent="1">
          <mxGeometry x="389" y="1090" width="60" height="40" as="geometry" />
        </mxCell>
        <mxCell id="murbXNoFbytTO8YjGdqV-25" value="" style="endArrow=classic;html=1;rounded=0;exitX=1;exitY=0;exitDx=0;exitDy=0;entryX=0;entryY=0;entryDx=0;entryDy=0;" edge="1" parent="1" source="murbXNoFbytTO8YjGdqV-16" target="murbXNoFbytTO8YjGdqV-27">
          <mxGeometry width="50" height="50" relative="1" as="geometry">
            <mxPoint x="390" y="690" as="sourcePoint" />
            <mxPoint x="1000" y="620" as="targetPoint" />
          </mxGeometry>
        </mxCell>
        <mxCell id="murbXNoFbytTO8YjGdqV-26" value="" style="endArrow=classic;html=1;rounded=0;exitX=1;exitY=1;exitDx=0;exitDy=0;entryX=0;entryY=1;entryDx=0;entryDy=0;" edge="1" parent="1" source="murbXNoFbytTO8YjGdqV-16" target="murbXNoFbytTO8YjGdqV-27">
          <mxGeometry width="50" height="50" relative="1" as="geometry">
            <mxPoint x="745" y="860" as="sourcePoint" />
            <mxPoint x="1000" y="1080" as="targetPoint" />
          </mxGeometry>
        </mxCell>
        <mxCell id="murbXNoFbytTO8YjGdqV-27" value="&lt;b&gt;&lt;font style=&quot;font-size: 16px;&quot;&gt;GPT2Block&lt;/font&gt;&lt;/b&gt;" style="rounded=0;whiteSpace=wrap;html=1;dashed=1;fillColor=none;verticalAlign=top;" vertex="1" parent="1">
          <mxGeometry x="1010" y="500" width="430" height="630" as="geometry" />
        </mxCell>
        <mxCell id="murbXNoFbytTO8YjGdqV-28" value="&lt;b&gt;RMSNorm&lt;/b&gt;" style="shape=process;whiteSpace=wrap;html=1;backgroundOutline=1;fillColor=#fa6800;fontColor=#FFFFFF;strokeColor=#C73500;verticalAlign=middle;" vertex="1" parent="1">
          <mxGeometry x="1016" y="860" width="418" height="40" as="geometry" />
        </mxCell>
        <mxCell id="murbXNoFbytTO8YjGdqV-29" value="&lt;b&gt;RMSNorm&lt;/b&gt;" style="shape=process;whiteSpace=wrap;html=1;backgroundOutline=1;fillColor=#fa6800;fontColor=#FFFFFF;strokeColor=#C73500;verticalAlign=middle;" vertex="1" parent="1">
          <mxGeometry x="1016" y="680" width="418" height="40" as="geometry" />
        </mxCell>
        <mxCell id="murbXNoFbytTO8YjGdqV-30" value="&lt;b&gt;GPT2Attention&lt;/b&gt;" style="shape=process;whiteSpace=wrap;html=1;backgroundOutline=1;fillColor=#fa6800;fontColor=#FFFFFF;strokeColor=#C73500;verticalAlign=middle;" vertex="1" parent="1">
          <mxGeometry x="1016" y="770" width="418" height="40" as="geometry" />
        </mxCell>
        <mxCell id="murbXNoFbytTO8YjGdqV-31" value="&lt;b&gt;GPT2MLP&lt;/b&gt;" style="shape=process;whiteSpace=wrap;html=1;backgroundOutline=1;fillColor=#fa6800;fontColor=#FFFFFF;strokeColor=#C73500;verticalAlign=middle;" vertex="1" parent="1">
          <mxGeometry x="1016" y="950" width="418" height="40" as="geometry" />
        </mxCell>
        <mxCell id="murbXNoFbytTO8YjGdqV-32" value="&lt;b style=&quot;font-size: 12px;&quot;&gt;&lt;font style=&quot;font-size: 12px;&quot;&gt;hidden_states&lt;br&gt;&lt;br&gt;&lt;font style=&quot;font-size: 12px;&quot; color=&quot;#ffffff&quot;&gt;[batch size, sequence length, hidden size]&lt;/font&gt;&lt;br&gt;&lt;/font&gt;&lt;/b&gt;" style="rounded=1;whiteSpace=wrap;html=1;fillColor=#1ba1e2;strokeColor=#006EAF;fontSize=11;verticalAlign=top;fontColor=#ffffff;" vertex="1" parent="1">
          <mxGeometry x="1025" y="570" width="400" height="60" as="geometry" />
        </mxCell>
        <mxCell id="murbXNoFbytTO8YjGdqV-33" value="" style="shape=singleArrow;direction=south;whiteSpace=wrap;html=1;" vertex="1" parent="1">
          <mxGeometry x="1195" y="630" width="60" height="50" as="geometry" />
        </mxCell>
        <mxCell id="murbXNoFbytTO8YjGdqV-34" value="" style="shape=singleArrow;direction=south;whiteSpace=wrap;html=1;" vertex="1" parent="1">
          <mxGeometry x="1195" y="720" width="60" height="50" as="geometry" />
        </mxCell>
        <mxCell id="murbXNoFbytTO8YjGdqV-35" value="" style="shape=singleArrow;direction=south;whiteSpace=wrap;html=1;" vertex="1" parent="1">
          <mxGeometry x="1195" y="810" width="60" height="50" as="geometry" />
        </mxCell>
        <mxCell id="murbXNoFbytTO8YjGdqV-36" value="" style="shape=singleArrow;direction=south;whiteSpace=wrap;html=1;" vertex="1" parent="1">
          <mxGeometry x="1195" y="900" width="60" height="50" as="geometry" />
        </mxCell>
        <mxCell id="murbXNoFbytTO8YjGdqV-37" value="&lt;b style=&quot;font-size: 12px;&quot;&gt;&lt;font style=&quot;font-size: 12px;&quot;&gt;output&lt;br&gt;&lt;br&gt;&lt;font style=&quot;font-size: 12px;&quot; color=&quot;#ffffff&quot;&gt;[batch size, sequence length, hidden size]&lt;/font&gt;&lt;br&gt;&lt;/font&gt;&lt;/b&gt;" style="rounded=1;whiteSpace=wrap;html=1;fillColor=#1ba1e2;strokeColor=#006EAF;fontSize=11;verticalAlign=top;fontColor=#ffffff;" vertex="1" parent="1">
          <mxGeometry x="1025" y="1040" width="400" height="60" as="geometry" />
        </mxCell>
        <mxCell id="murbXNoFbytTO8YjGdqV-38" value="" style="shape=singleArrow;direction=south;whiteSpace=wrap;html=1;" vertex="1" parent="1">
          <mxGeometry x="1195" y="990" width="60" height="50" as="geometry" />
        </mxCell>
        <mxCell id="murbXNoFbytTO8YjGdqV-39" value="" style="endArrow=classic;html=1;rounded=0;exitX=1;exitY=0;exitDx=0;exitDy=0;entryX=0;entryY=0;entryDx=0;entryDy=0;" edge="1" parent="1" source="murbXNoFbytTO8YjGdqV-30" target="murbXNoFbytTO8YjGdqV-42">
          <mxGeometry width="50" height="50" relative="1" as="geometry">
            <mxPoint x="745" y="860" as="sourcePoint" />
            <mxPoint x="1760" y="460" as="targetPoint" />
          </mxGeometry>
        </mxCell>
        <mxCell id="murbXNoFbytTO8YjGdqV-42" value="&lt;b&gt;&lt;font style=&quot;font-size: 16px;&quot;&gt;GPT2Attention&lt;/font&gt;&lt;/b&gt;" style="rounded=0;whiteSpace=wrap;html=1;dashed=1;fillColor=none;verticalAlign=top;" vertex="1" parent="1">
          <mxGeometry x="1727" y="20" width="753" height="960" as="geometry" />
        </mxCell>
        <mxCell id="murbXNoFbytTO8YjGdqV-40" value="" style="endArrow=classic;html=1;rounded=0;exitX=1;exitY=1;exitDx=0;exitDy=0;entryX=0;entryY=1;entryDx=0;entryDy=0;" edge="1" parent="1" source="murbXNoFbytTO8YjGdqV-30" target="murbXNoFbytTO8YjGdqV-42">
          <mxGeometry width="50" height="50" relative="1" as="geometry">
            <mxPoint x="1444" y="780" as="sourcePoint" />
            <mxPoint x="1750" y="1010" as="targetPoint" />
          </mxGeometry>
        </mxCell>
        <mxCell id="murbXNoFbytTO8YjGdqV-43" value="&lt;b&gt;c_attn: nn.Linear[embed_dim,&amp;nbsp; 3 * embed_dim]&lt;/b&gt;" style="shape=process;whiteSpace=wrap;html=1;backgroundOutline=1;fillColor=#fa6800;fontColor=#FFFFFF;strokeColor=#C73500;verticalAlign=middle;" vertex="1" parent="1">
          <mxGeometry x="1860" y="150" width="474" height="40" as="geometry" />
        </mxCell>
        <mxCell id="murbXNoFbytTO8YjGdqV-44" value="&lt;b style=&quot;font-size: 12px;&quot;&gt;&lt;font style=&quot;font-size: 12px;&quot;&gt;hidden_states&lt;br&gt;&lt;br&gt;&lt;font style=&quot;font-size: 12px;&quot; color=&quot;#ffffff&quot;&gt;[batch size, sequence length, hidden size]&lt;/font&gt;&lt;br&gt;&lt;/font&gt;&lt;/b&gt;" style="rounded=1;whiteSpace=wrap;html=1;fillColor=#1ba1e2;strokeColor=#006EAF;fontSize=11;verticalAlign=top;fontColor=#ffffff;" vertex="1" parent="1">
          <mxGeometry x="1887" y="60" width="400" height="60" as="geometry" />
        </mxCell>
        <mxCell id="murbXNoFbytTO8YjGdqV-45" value="" style="shape=singleArrow;direction=south;whiteSpace=wrap;html=1;" vertex="1" parent="1">
          <mxGeometry x="2067" y="120" width="60" height="30" as="geometry" />
        </mxCell>
        <mxCell id="murbXNoFbytTO8YjGdqV-46" value="" style="shape=singleArrow;direction=south;whiteSpace=wrap;html=1;" vertex="1" parent="1">
          <mxGeometry x="2067" y="190" width="60" height="40" as="geometry" />
        </mxCell>
        <mxCell id="murbXNoFbytTO8YjGdqV-47" value="&lt;b&gt;spilt[split_size, dim=2]&lt;/b&gt;" style="shape=process;whiteSpace=wrap;html=1;backgroundOutline=1;fillColor=#fa6800;fontColor=#FFFFFF;strokeColor=#C73500;verticalAlign=middle;" vertex="1" parent="1">
          <mxGeometry x="1860" y="230" width="474" height="40" as="geometry" />
        </mxCell>
        <mxCell id="murbXNoFbytTO8YjGdqV-48" value="&lt;b style=&quot;font-size: 12px;&quot;&gt;&lt;font style=&quot;font-size: 12px;&quot;&gt;query_states, key_states, value_states&lt;br&gt;&lt;br&gt;&lt;font style=&quot;font-size: 12px;&quot; color=&quot;#ffffff&quot;&gt;[batch size, sequence length, hidden size]&lt;/font&gt;&lt;br&gt;&lt;/font&gt;&lt;/b&gt;" style="rounded=1;whiteSpace=wrap;html=1;fillColor=#1ba1e2;strokeColor=#006EAF;fontSize=11;verticalAlign=top;fontColor=#ffffff;" vertex="1" parent="1">
          <mxGeometry x="1907" y="310" width="400" height="60" as="geometry" />
        </mxCell>
        <mxCell id="murbXNoFbytTO8YjGdqV-49" value="" style="shape=singleArrow;direction=south;whiteSpace=wrap;html=1;" vertex="1" parent="1">
          <mxGeometry x="2067" y="270" width="60" height="40" as="geometry" />
        </mxCell>
        <mxCell id="murbXNoFbytTO8YjGdqV-61" value="" style="edgeStyle=orthogonalEdgeStyle;rounded=0;orthogonalLoop=1;jettySize=auto;html=1;entryX=1;entryY=0.5;entryDx=0;entryDy=0;" edge="1" parent="1" source="murbXNoFbytTO8YjGdqV-50" target="murbXNoFbytTO8YjGdqV-62">
          <mxGeometry relative="1" as="geometry">
            <mxPoint x="2370" y="830" as="targetPoint" />
            <Array as="points">
              <mxPoint x="2364" y="440" />
              <mxPoint x="2364" y="800" />
              <mxPoint x="2344" y="800" />
            </Array>
          </mxGeometry>
        </mxCell>
        <mxCell id="murbXNoFbytTO8YjGdqV-50" value="&lt;b style=&quot;border-color: var(--border-color); font-size: 12px;&quot;&gt;query_states, key_states, value_states&lt;/b&gt;&lt;b style=&quot;font-size: 12px;&quot;&gt;&lt;font style=&quot;font-size: 12px;&quot;&gt;&lt;br&gt;&lt;br&gt;&lt;font style=&quot;font-size: 12px;&quot; color=&quot;#ffffff&quot;&gt;[batch size, sequence length, head_num, head_dim]&lt;/font&gt;&lt;br&gt;&lt;/font&gt;&lt;/b&gt;" style="rounded=1;whiteSpace=wrap;html=1;fillColor=#1ba1e2;strokeColor=#006EAF;fontSize=11;verticalAlign=top;fontColor=#ffffff;" vertex="1" parent="1">
          <mxGeometry x="1898" y="410" width="400" height="60" as="geometry" />
        </mxCell>
        <mxCell id="murbXNoFbytTO8YjGdqV-51" value="" style="shape=singleArrow;direction=south;whiteSpace=wrap;html=1;" vertex="1" parent="1">
          <mxGeometry x="2068" y="370" width="60" height="40" as="geometry" />
        </mxCell>
        <mxCell id="murbXNoFbytTO8YjGdqV-52" value="&lt;b&gt;MatMul: query_states * key_states^T&lt;/b&gt;" style="shape=process;whiteSpace=wrap;html=1;backgroundOutline=1;fillColor=#fa6800;fontColor=#FFFFFF;strokeColor=#C73500;verticalAlign=middle;" vertex="1" parent="1">
          <mxGeometry x="1870" y="510" width="474" height="40" as="geometry" />
        </mxCell>
        <mxCell id="murbXNoFbytTO8YjGdqV-54" value="" style="shape=singleArrow;direction=south;whiteSpace=wrap;html=1;" vertex="1" parent="1">
          <mxGeometry x="2068" y="470" width="60" height="40" as="geometry" />
        </mxCell>
        <mxCell id="murbXNoFbytTO8YjGdqV-55" value="&lt;b style=&quot;border-color: var(--border-color); font-size: 12px;&quot;&gt;output_states&lt;/b&gt;&lt;b style=&quot;font-size: 12px;&quot;&gt;&lt;font style=&quot;font-size: 12px;&quot;&gt;&lt;br&gt;&lt;br&gt;&lt;font style=&quot;font-size: 12px;&quot; color=&quot;#ffffff&quot;&gt;[batch size, head_num, seq_length,&amp;nbsp;&lt;/font&gt;&lt;/font&gt;&lt;/b&gt;&lt;b style=&quot;border-color: var(--border-color); font-size: 12px;&quot;&gt;seq_length&lt;/b&gt;&lt;b style=&quot;font-size: 12px;&quot;&gt;&lt;font style=&quot;font-size: 12px;&quot;&gt;&lt;font style=&quot;font-size: 12px;&quot; color=&quot;#ffffff&quot;&gt;]&lt;/font&gt;&lt;br&gt;&lt;/font&gt;&lt;/b&gt;" style="rounded=1;whiteSpace=wrap;html=1;fillColor=#1ba1e2;strokeColor=#006EAF;fontSize=11;verticalAlign=top;fontColor=#ffffff;" vertex="1" parent="1">
          <mxGeometry x="1898" y="590" width="400" height="60" as="geometry" />
        </mxCell>
        <mxCell id="murbXNoFbytTO8YjGdqV-56" value="" style="shape=singleArrow;direction=south;whiteSpace=wrap;html=1;" vertex="1" parent="1">
          <mxGeometry x="2068" y="550" width="60" height="40" as="geometry" />
        </mxCell>
        <mxCell id="murbXNoFbytTO8YjGdqV-57" value="&lt;b&gt;AddMask + Softmax&lt;/b&gt;" style="shape=process;whiteSpace=wrap;html=1;backgroundOutline=1;fillColor=#fa6800;fontColor=#FFFFFF;strokeColor=#C73500;verticalAlign=middle;" vertex="1" parent="1">
          <mxGeometry x="1870" y="690" width="474" height="40" as="geometry" />
        </mxCell>
        <mxCell id="murbXNoFbytTO8YjGdqV-58" value="" style="shape=singleArrow;direction=south;whiteSpace=wrap;html=1;" vertex="1" parent="1">
          <mxGeometry x="2067" y="650" width="60" height="40" as="geometry" />
        </mxCell>
        <mxCell id="murbXNoFbytTO8YjGdqV-59" value="" style="shape=singleArrow;direction=south;whiteSpace=wrap;html=1;" vertex="1" parent="1">
          <mxGeometry x="2068" y="730" width="60" height="40" as="geometry" />
        </mxCell>
        <mxCell id="murbXNoFbytTO8YjGdqV-62" value="&lt;b&gt;MatMul&lt;/b&gt;" style="shape=process;whiteSpace=wrap;html=1;backgroundOutline=1;fillColor=#fa6800;fontColor=#FFFFFF;strokeColor=#C73500;verticalAlign=middle;" vertex="1" parent="1">
          <mxGeometry x="1870" y="770" width="474" height="40" as="geometry" />
        </mxCell>
        <mxCell id="murbXNoFbytTO8YjGdqV-63" value="&lt;b&gt;c_proj: nn.Linear[embed_dim,&amp;nbsp; embed_dim]&lt;/b&gt;" style="shape=process;whiteSpace=wrap;html=1;backgroundOutline=1;fillColor=#fa6800;fontColor=#FFFFFF;strokeColor=#C73500;verticalAlign=middle;" vertex="1" parent="1">
          <mxGeometry x="1870" y="850" width="474" height="40" as="geometry" />
        </mxCell>
        <mxCell id="murbXNoFbytTO8YjGdqV-65" value="" style="shape=singleArrow;direction=south;whiteSpace=wrap;html=1;" vertex="1" parent="1">
          <mxGeometry x="2068" y="810" width="60" height="40" as="geometry" />
        </mxCell>
        <mxCell id="murbXNoFbytTO8YjGdqV-66" value="&lt;span style=&quot;font-size: 16px;&quot;&gt;&lt;b&gt;GPT2MLP&lt;/b&gt;&lt;/span&gt;" style="rounded=0;whiteSpace=wrap;html=1;dashed=1;fillColor=none;verticalAlign=top;" vertex="1" parent="1">
          <mxGeometry x="1727" y="1040" width="740" height="500" as="geometry" />
        </mxCell>
        <mxCell id="murbXNoFbytTO8YjGdqV-68" value="&lt;b style=&quot;font-size: 12px;&quot;&gt;&lt;font style=&quot;font-size: 12px;&quot;&gt;output&lt;br&gt;&lt;br&gt;&lt;font style=&quot;font-size: 12px;&quot; color=&quot;#ffffff&quot;&gt;[batch size, sequence length, hidden size]&lt;/font&gt;&lt;br&gt;&lt;/font&gt;&lt;/b&gt;" style="rounded=1;whiteSpace=wrap;html=1;fillColor=#1ba1e2;strokeColor=#006EAF;fontSize=11;verticalAlign=top;fontColor=#ffffff;" vertex="1" parent="1">
          <mxGeometry x="1903.5" y="920" width="400" height="60" as="geometry" />
        </mxCell>
        <mxCell id="murbXNoFbytTO8YjGdqV-69" value="" style="shape=singleArrow;direction=south;whiteSpace=wrap;html=1;" vertex="1" parent="1">
          <mxGeometry x="2068" y="890" width="60" height="30" as="geometry" />
        </mxCell>
        <mxCell id="murbXNoFbytTO8YjGdqV-70" value="" style="endArrow=classic;html=1;rounded=0;exitX=1;exitY=0;exitDx=0;exitDy=0;entryX=0;entryY=0;entryDx=0;entryDy=0;" edge="1" parent="1" source="murbXNoFbytTO8YjGdqV-31" target="murbXNoFbytTO8YjGdqV-66">
          <mxGeometry width="50" height="50" relative="1" as="geometry">
            <mxPoint x="1444" y="820" as="sourcePoint" />
            <mxPoint x="1737" y="990" as="targetPoint" />
          </mxGeometry>
        </mxCell>
        <mxCell id="murbXNoFbytTO8YjGdqV-71" value="" style="endArrow=classic;html=1;rounded=0;exitX=1;exitY=1;exitDx=0;exitDy=0;entryX=0;entryY=1;entryDx=0;entryDy=0;" edge="1" parent="1" source="murbXNoFbytTO8YjGdqV-31" target="murbXNoFbytTO8YjGdqV-66">
          <mxGeometry width="50" height="50" relative="1" as="geometry">
            <mxPoint x="1444" y="960" as="sourcePoint" />
            <mxPoint x="1700" y="1350" as="targetPoint" />
          </mxGeometry>
        </mxCell>
        <mxCell id="murbXNoFbytTO8YjGdqV-72" value="&lt;b style=&quot;font-size: 12px;&quot;&gt;&lt;font style=&quot;font-size: 12px;&quot;&gt;hidden_states&lt;br&gt;&lt;br&gt;&lt;font style=&quot;font-size: 12px;&quot; color=&quot;#ffffff&quot;&gt;[batch size, sequence length, hidden size]&lt;/font&gt;&lt;br&gt;&lt;/font&gt;&lt;/b&gt;" style="rounded=1;whiteSpace=wrap;html=1;fillColor=#1ba1e2;strokeColor=#006EAF;fontSize=11;verticalAlign=top;fontColor=#ffffff;" vertex="1" parent="1">
          <mxGeometry x="1897" y="1090" width="400" height="60" as="geometry" />
        </mxCell>
        <mxCell id="murbXNoFbytTO8YjGdqV-73" value="&lt;b&gt;c_fc: nn.Linear[embed_dim,&amp;nbsp;&amp;nbsp;intermediate_size&lt;/b&gt;&lt;b style=&quot;background-color: initial;&quot;&gt;]&lt;/b&gt;" style="shape=process;whiteSpace=wrap;html=1;backgroundOutline=1;fillColor=#fa6800;fontColor=#FFFFFF;strokeColor=#C73500;verticalAlign=middle;" vertex="1" parent="1">
          <mxGeometry x="1861" y="1180" width="474" height="40" as="geometry" />
        </mxCell>
        <mxCell id="murbXNoFbytTO8YjGdqV-74" value="" style="shape=singleArrow;direction=south;whiteSpace=wrap;html=1;" vertex="1" parent="1">
          <mxGeometry x="2068" y="1150" width="60" height="30" as="geometry" />
        </mxCell>
        <mxCell id="murbXNoFbytTO8YjGdqV-75" value="&lt;b&gt;ACT: 激活函数&lt;/b&gt;" style="shape=process;whiteSpace=wrap;html=1;backgroundOutline=1;fillColor=#fa6800;fontColor=#FFFFFF;strokeColor=#C73500;verticalAlign=middle;" vertex="1" parent="1">
          <mxGeometry x="1860" y="1250" width="474" height="40" as="geometry" />
        </mxCell>
        <mxCell id="murbXNoFbytTO8YjGdqV-76" value="" style="shape=singleArrow;direction=south;whiteSpace=wrap;html=1;" vertex="1" parent="1">
          <mxGeometry x="2068" y="1220" width="60" height="30" as="geometry" />
        </mxCell>
        <mxCell id="murbXNoFbytTO8YjGdqV-77" value="&lt;b&gt;c_proj: nn.Linear[ intermediate_size,&amp;nbsp;&lt;/b&gt;&lt;b style=&quot;border-color: var(--border-color);&quot;&gt;embed_dim&lt;/b&gt;&lt;b style=&quot;background-color: initial;&quot;&gt;]&lt;/b&gt;" style="shape=process;whiteSpace=wrap;html=1;backgroundOutline=1;fillColor=#fa6800;fontColor=#FFFFFF;strokeColor=#C73500;verticalAlign=middle;" vertex="1" parent="1">
          <mxGeometry x="1860" y="1320" width="474" height="40" as="geometry" />
        </mxCell>
        <mxCell id="murbXNoFbytTO8YjGdqV-78" value="" style="shape=singleArrow;direction=south;whiteSpace=wrap;html=1;" vertex="1" parent="1">
          <mxGeometry x="2067" y="1290" width="60" height="30" as="geometry" />
        </mxCell>
        <mxCell id="murbXNoFbytTO8YjGdqV-79" value="&lt;b&gt;nn.Dropout&lt;/b&gt;" style="shape=process;whiteSpace=wrap;html=1;backgroundOutline=1;fillColor=#fa6800;fontColor=#FFFFFF;strokeColor=#C73500;verticalAlign=middle;" vertex="1" parent="1">
          <mxGeometry x="1861" y="1390" width="474" height="40" as="geometry" />
        </mxCell>
        <mxCell id="murbXNoFbytTO8YjGdqV-80" value="" style="shape=singleArrow;direction=south;whiteSpace=wrap;html=1;" vertex="1" parent="1">
          <mxGeometry x="2067" y="1360" width="60" height="30" as="geometry" />
        </mxCell>
        <mxCell id="murbXNoFbytTO8YjGdqV-82" value="&lt;b style=&quot;font-size: 12px;&quot;&gt;&lt;font style=&quot;font-size: 12px;&quot;&gt;output&lt;br&gt;&lt;br&gt;&lt;font style=&quot;font-size: 12px;&quot; color=&quot;#ffffff&quot;&gt;[batch size, sequence length, hidden size]&lt;/font&gt;&lt;br&gt;&lt;/font&gt;&lt;/b&gt;" style="rounded=1;whiteSpace=wrap;html=1;fillColor=#1ba1e2;strokeColor=#006EAF;fontSize=11;verticalAlign=top;fontColor=#ffffff;" vertex="1" parent="1">
          <mxGeometry x="1898" y="1460" width="400" height="60" as="geometry" />
        </mxCell>
        <mxCell id="murbXNoFbytTO8YjGdqV-83" value="" style="shape=singleArrow;direction=south;whiteSpace=wrap;html=1;" vertex="1" parent="1">
          <mxGeometry x="2068" y="1430" width="60" height="30" as="geometry" />
        </mxCell>
      </root>
    </mxGraphModel>
  </diagram>
</mxfile>
